<?xml version="1.0" encoding="UTF-8" standalone="no"?>
<!DOCTYPE svg PUBLIC "-//W3C//DTD SVG 1.1//EN" "http://www.w3.org/Graphics/SVG/1.1/DTD/svg11.dtd">
<svg width="100%" height="100%" viewBox="0 0 81 127" version="1.1" xmlns="http://www.w3.org/2000/svg" xmlns:xlink="http://www.w3.org/1999/xlink" xml:space="preserve" xmlns:serif="http://www.serif.com/" style="fill-rule:evenodd;clip-rule:evenodd;stroke-linejoin:round;stroke-miterlimit:2;">
    <g id="Artboard1" transform="matrix(0.507543,0,0,0.793221,0,0)">
        <rect x="0" y="0" width="158.17" height="159.83" style="fill:none;"/>
        <clipPath id="_clip1">
            <rect x="0" y="0" width="158.17" height="159.83"/>
        </clipPath>
        <g clip-path="url(#_clip1)">
            <g transform="matrix(1.970276,0,0,1.260682,-173.638811,-51.082833)">
                <path d="M127.16,122.82L107.23,106.82C107.14,107.89 107.1,108.96 107.1,110.05L107.1,152.16C110.825,140.667 117.796,130.492 127.17,122.87M126.17,72.4L90.17,43.5L90.17,51.74C90.166,55.779 92.01,59.605 95.17,62.12L110.74,74.61C111.217,75.013 111.493,75.606 111.493,76.23C111.493,77.39 110.54,78.346 109.38,78.35C108.895,78.356 108.424,78.189 108.05,77.88L90.13,63.47L90.13,68.09C90.125,72.126 91.969,75.95 95.13,78.46L103.18,84.92C103.66,85.325 103.938,85.922 103.94,86.55C103.94,87.713 102.983,88.669 101.82,88.669C101.336,88.669 100.867,88.503 100.49,88.2L90.16,79.9L90.16,84.9C90.156,88.939 92,92.765 95.16,95.28L106.16,104.1C107.658,93.815 113.025,84.479 121.16,78.01L126.16,74.01L126.17,72.4ZM130.4,74L135.4,78C143.536,84.468 148.904,93.804 150.4,104.09L161.4,95.27C164.557,92.752 166.399,88.928 166.4,84.89L166.4,79.89L156.06,88.19C155.685,88.496 155.214,88.662 154.73,88.66C153.569,88.657 152.616,87.701 152.616,86.54C152.616,85.91 152.896,85.313 153.38,84.91L161.43,78.45C164.589,75.938 166.432,72.116 166.43,68.08L166.43,63.47L148.53,77.83C148.159,78.143 147.686,78.31 147.2,78.3C146.037,78.3 145.08,77.343 145.08,76.18C145.08,75.552 145.363,74.957 145.85,74.56L161.42,62.07C164.577,59.552 166.419,55.728 166.42,51.69L166.42,43.45L130.42,72.35L130.4,74ZM149.47,152.16L149.47,110C149.47,108.91 149.42,107.84 149.34,106.77L129.41,122.77C138.781,130.393 145.749,140.567 149.47,152.06" style="fill:rgb(153,167,214);fill-rule:nonzero;"/>
            </g>
            <g transform="matrix(1.970276,0,0,1.260682,-173.638811,-51.082833)">
                <path d="M149.47,152.11L149.47,110C149.47,108.92 149.42,107.84 149.34,106.78L129.41,122.78C138.781,130.403 145.749,140.577 149.47,152.07M130.4,74L135.4,78C143.536,84.468 148.904,93.804 150.4,104.09L161.4,95.27C164.555,92.756 166.398,88.935 166.4,84.9L166.4,79.9L156.07,88.2C155.695,88.506 155.224,88.672 154.74,88.67C153.579,88.667 152.626,87.711 152.626,86.55C152.626,85.92 152.906,85.323 153.39,84.92L161.44,78.46C164.599,75.948 166.442,72.126 166.44,68.09L166.44,63.47L148.54,77.83C148.169,78.143 147.696,78.31 147.21,78.3C147.207,78.3 147.203,78.3 147.2,78.3C146.042,78.3 145.09,77.348 145.09,76.19C145.09,76.19 145.09,76.19 145.09,76.19C145.087,75.559 145.37,74.959 145.86,74.56L161.43,62.07C164.587,59.552 166.429,55.728 166.43,51.69L166.43,43.45L130.43,72.35L130.4,74ZM126.16,72.4L90.16,43.5L90.16,51.74C90.156,55.779 92,59.605 95.16,62.12L110.73,74.61C111.207,75.013 111.483,75.606 111.483,76.23C111.483,77.39 110.53,78.346 109.37,78.35C108.885,78.356 108.414,78.189 108.04,77.88L90.13,63.47L90.13,68.09C90.125,72.126 91.969,75.95 95.13,78.46L103.18,84.92C103.66,85.325 103.938,85.922 103.94,86.55C103.94,87.713 102.983,88.669 101.82,88.669C101.336,88.669 100.867,88.503 100.49,88.2L90.16,79.91L90.16,84.91C90.158,88.946 92.001,92.768 95.16,95.28L106.16,104.1C107.658,93.815 113.025,84.479 121.16,78.01L126.16,74.01L126.16,72.4ZM127.16,122.87L107.23,106.87C107.14,107.93 107.1,109.01 107.1,110.09L107.1,152.2C110.825,140.707 117.796,130.532 127.17,122.91M127.59,100.91C126.98,101.177 126.586,101.784 126.59,102.45C126.59,102.453 126.59,102.456 126.59,102.459C126.59,103.392 127.357,104.159 128.29,104.159C129.223,104.159 129.99,103.392 129.99,102.459C129.99,101.792 129.598,101.185 128.99,100.91L128.99,71.68L167.83,40.52L167.83,51.69C167.835,56.157 165.796,60.389 162.3,63.17L146.73,75.67C146.583,75.803 146.499,75.992 146.499,76.19C146.499,76.574 146.815,76.89 147.199,76.89C147.199,76.89 147.2,76.89 147.2,76.89C147.355,76.893 147.506,76.844 147.63,76.75L167.83,60.54L167.83,68.09C167.832,72.556 165.793,76.787 162.3,79.57L154.26,86C154.116,86.134 154.033,86.323 154.033,86.52C154.033,86.908 154.352,87.228 154.74,87.23C154.892,87.235 155.041,87.185 155.16,87.09L167.85,76.91L167.85,84.84C167.851,89.303 165.813,93.531 162.32,96.31L150.68,105.68C150.829,107.105 150.903,108.537 150.9,109.97L150.9,166.46C149.576,149.713 141.398,134.232 128.31,123.7C115.212,134.226 107.029,149.709 105.71,166.46L105.71,110C105.707,108.567 105.781,107.135 105.93,105.71L94.27,96.34C90.777,93.561 88.739,89.333 88.74,84.87L88.74,76.94L101.4,87.12C101.52,87.212 101.668,87.261 101.82,87.26C101.831,87.26 101.841,87.261 101.852,87.261C102.241,87.261 102.562,86.94 102.562,86.551C102.562,86.337 102.466,86.135 102.3,86L94.24,79.54C90.753,76.753 88.719,72.524 88.72,68.06L88.72,60.51L108.92,76.72C109.04,76.814 109.188,76.863 109.34,76.86C109.344,76.86 109.348,76.86 109.351,76.86C109.735,76.86 110.051,76.544 110.051,76.16C110.051,75.962 109.967,75.773 109.82,75.64L94.27,63.17C90.774,60.389 88.735,56.157 88.74,51.69L88.74,40.52L127.58,71.68L127.59,100.91Z" style="fill:rgb(0,79,159);fill-rule:nonzero;"/>
            </g>
            <g transform="matrix(1.970276,0,0,1.260682,-173.638811,-51.082833)">
                <path d="M119.35,160.82C119.35,160.82 119.24,160.89 119.2,161.02C119.122,161.312 118.967,161.579 118.75,161.79C118.672,161.844 118.568,161.844 118.49,161.79C118.457,161.784 118.423,161.784 118.39,161.79C118.281,161.906 118.181,162.03 118.09,162.16C117.9,162.4 117.73,162.52 117.57,162.52L117.13,162.52C117.03,162.52 116.82,162.68 116.49,163C116.221,163.253 115.859,163.383 115.49,163.36C115.207,163.369 114.93,163.285 114.7,163.12C114.428,162.863 114.295,162.491 114.34,162.12C114.327,161.91 114.327,161.7 114.34,161.49L114.68,159.14L114.68,159.03C114.68,159.03 114.6,159.03 114.56,159.17C114.39,159.55 114.21,159.93 114.04,160.3C113.932,160.545 113.861,160.804 113.83,161.07L113.45,164.2C113.386,164.622 113.182,165.009 112.87,165.3C112.624,165.607 112.262,165.798 111.87,165.83C111.701,165.836 111.534,165.783 111.4,165.68C111.928,165.067 112.253,164.305 112.33,163.5C112.57,161.9 112.75,160.65 112.88,159.74C112.888,159.674 112.888,159.606 112.88,159.54L112.88,159.43C112.88,159.43 112.77,159.51 112.68,159.66C112.59,159.81 112.36,160.3 112.19,160.66C112.075,160.899 111.987,161.151 111.93,161.41C111.82,162.35 111.74,163.1 111.67,163.65C111.588,164.293 111.42,164.922 111.17,165.52C111.03,165.67 110.96,165.77 110.96,165.83C110.99,166.094 111.102,166.342 111.28,166.54C111.5,166.81 111.7,166.95 111.86,166.95C112.264,166.926 112.634,166.715 112.86,166.38C113.286,165.814 113.602,165.173 113.79,164.49C113.864,164.677 113.993,164.837 114.16,164.95C114.35,165.076 114.573,165.142 114.8,165.14C115.393,165.084 115.917,164.729 116.19,164.2C116.49,163.77 116.73,163.55 116.92,163.55L117.07,163.55C117.143,163.56 117.217,163.56 117.29,163.55C117.516,163.513 117.72,163.392 117.86,163.21C118.024,163.04 118.201,162.883 118.39,162.74C118.694,162.585 118.948,162.345 119.12,162.05C119.333,161.72 119.461,161.342 119.49,160.95C119.42,160.87 119.4,160.83 119.35,160.82Z" style="fill:rgb(0,79,159);fill-rule:nonzero;"/>
            </g>
            <g transform="matrix(1.970276,0,0,1.260682,-173.638811,-51.082833)">
                <path d="M130.12,160.14C130.04,161.07 129.95,162 129.87,162.92C129.828,163.522 129.745,164.12 129.62,164.71L129.62,164.87C129.62,164.92 129.67,164.87 129.72,164.77C130.181,164.054 130.463,163.238 130.54,162.39C130.54,162.2 130.65,161.39 130.79,159.99C130.79,159.57 130.87,159.21 130.9,158.92L130.47,158.92C130.294,159.307 130.176,159.718 130.12,160.14Z" style="fill:rgb(0,79,159);fill-rule:nonzero;"/>
            </g>
            <g transform="matrix(1.970276,0,0,1.260682,-173.638811,-51.082833)">
                <path d="M128.56,161.84C128.273,162.721 127.855,163.554 127.32,164.31C127.062,164.634 126.759,164.92 126.42,165.16C126.118,165.386 125.804,165.597 125.48,165.79C125.34,165.89 125.27,165.97 125.27,166.03C125.27,166.1 125.33,166.12 125.45,166.12L125.55,166.12C126.016,166.097 126.472,165.978 126.89,165.77C127.247,165.515 127.53,165.17 127.71,164.77C128.164,163.846 128.5,162.868 128.71,161.86C128.719,161.827 128.719,161.793 128.71,161.76C128.71,161.7 128.71,161.66 128.64,161.65C128.57,161.64 128.6,161.74 128.56,161.84Z" style="fill:rgb(0,79,159);fill-rule:nonzero;"/>
            </g>
            <g transform="matrix(1.970276,0,0,1.260682,-173.638811,-51.082833)">
                <path d="M123.18,161.63C123.07,161.56 123,161.63 122.95,161.68C122.72,162.2 122.53,162.61 122.38,162.9C122.335,163.017 122.377,163.15 122.48,163.22C123.06,163.7 123.34,164.06 123.34,164.32C123.34,164.42 123.19,164.63 122.88,164.94C122.572,165.258 122.238,165.549 121.88,165.81C121.7,165.94 121.61,166.04 121.61,166.09C121.61,166.14 121.61,166.09 121.7,166.09L121.88,166.09C122.419,165.986 122.918,165.733 123.32,165.36C123.554,165.085 123.743,164.774 123.88,164.44C124.068,164.056 124.173,163.637 124.19,163.21C124.183,162.535 123.79,161.92 123.18,161.63Z" style="fill:rgb(0,79,159);fill-rule:nonzero;"/>
            </g>
            <g transform="matrix(1.970276,0,0,1.260682,-173.638811,-51.082833)">
                <path d="M126.18,162.4C126.18,162.21 126.3,161.4 126.43,160C126.47,159.567 126.51,159.207 126.55,158.92C126.55,158.54 126.64,158.27 126.68,158.1C126.703,158.028 126.703,157.952 126.68,157.88C126.657,157.808 126.59,157.95 126.53,158.08C126.38,158.39 126.25,158.66 126.14,158.92C125.96,159.315 125.832,159.732 125.76,160.16C125.68,161.09 125.6,162.02 125.51,162.94C125.475,163.545 125.394,164.147 125.27,164.74L125.27,164.89C125.27,164.94 125.27,164.89 125.36,164.79C125.831,164.076 126.113,163.253 126.18,162.4Z" style="fill:rgb(0,79,159);fill-rule:nonzero;"/>
            </g>
            <g transform="matrix(1.970276,0,0,1.260682,-173.638811,-51.082833)">
                <path d="M132.51,162.22C132.29,162.22 132.09,162.44 131.87,162.87C131.725,163.169 131.617,163.485 131.55,163.81L131.55,163.95C131.55,163.96 131.61,163.95 131.69,163.95C131.77,163.95 131.58,164.02 131.53,164.14C131.327,164.595 131.209,165.083 131.18,165.58C131.169,165.809 131.244,166.034 131.39,166.21C131.516,166.367 131.709,166.456 131.91,166.45C132.43,166.45 132.91,166.05 133.26,165.24C133.53,164.74 133.69,164.187 133.73,163.62C133.73,162.7 133.32,162.22 132.51,162.22ZM132.74,165.1C132.588,165.231 132.391,165.299 132.19,165.29C132.035,165.304 131.881,165.257 131.76,165.16C131.675,165.1 131.623,165.004 131.62,164.9C131.63,164.662 131.673,164.426 131.75,164.2C131.755,164.167 131.755,164.133 131.75,164.1C131.75,164.02 131.75,163.98 131.68,163.98C132.036,163.967 132.386,164.069 132.68,164.27C132.83,164.382 132.925,164.553 132.94,164.74C132.934,164.885 132.86,165.018 132.74,165.1Z" style="fill:rgb(0,79,159);fill-rule:nonzero;"/>
            </g>
            <g transform="matrix(1.970276,0,0,1.260682,-173.638811,-51.082833)">
                <path d="M147.5,161.62C147.39,161.56 147.32,161.62 147.27,161.68C147.04,162.2 146.85,162.61 146.7,162.9C146.652,163.013 146.695,163.146 146.8,163.21C147.38,163.69 147.66,164.06 147.66,164.32C147.66,164.42 147.51,164.63 147.2,164.94C146.897,165.26 146.562,165.548 146.2,165.8C146.02,165.94 145.93,166.03 145.93,166.09C145.93,166.15 145.93,166.09 146.02,166.09L146.2,166.09C146.739,165.986 147.238,165.733 147.64,165.36C147.877,165.087 148.067,164.776 148.2,164.44C148.389,164.053 148.495,163.63 148.51,163.2C148.498,162.526 148.107,161.914 147.5,161.62Z" style="fill:rgb(0,79,159);fill-rule:nonzero;"/>
            </g>
            <g transform="matrix(1.970276,0,0,1.260682,-173.638811,-51.082833)">
                <path d="M145,160.29C144.92,161.23 144.84,162.15 144.75,163.08C144.714,163.682 144.634,164.28 144.51,164.87C144.478,164.915 144.478,164.975 144.51,165.02C144.542,165.065 144.56,165.02 144.6,164.92C145.072,164.21 145.354,163.39 145.42,162.54C145.42,162.35 145.54,161.54 145.67,160.14C145.72,159.64 145.77,159.23 145.81,158.92L145.42,158.92C145.217,159.355 145.075,159.816 145,160.29Z" style="fill:rgb(0,79,159);fill-rule:nonzero;"/>
            </g>
            <g transform="matrix(1.970276,0,0,1.260682,-173.638811,-51.082833)">
                <path d="M143,159.51C142.925,159.91 142.871,160.314 142.84,160.72C142.806,160.956 142.689,161.173 142.51,161.33C142.447,161.425 142.323,161.459 142.22,161.41C142.117,161.361 142.17,161.41 142.12,161.41L142.01,161.56C141.906,161.696 141.763,161.797 141.6,161.85C141.568,161.865 141.532,161.865 141.5,161.85C141.471,161.813 141.427,161.791 141.38,161.79C141.335,161.83 141.298,161.877 141.27,161.93C141.176,162.048 141.051,162.138 140.91,162.19C140.868,162.203 140.822,162.203 140.78,162.19C140.738,162.177 140.69,162.19 140.65,162.1C140.627,162.066 140.59,162.045 140.55,162.04L140.24,162.39C140.116,162.53 139.952,162.628 139.77,162.67C139.388,162.738 138.994,162.704 138.63,162.57C137.91,162.36 137.179,162.19 136.44,162.06L138.65,159.62L139.23,158.97C140.285,157.858 141.141,156.572 141.76,155.17C141.76,155.08 141.76,154.87 141.69,155.05C141.357,155.588 140.979,156.096 140.56,156.57C140.43,156.73 139.51,157.8 138.47,158.96C137.549,160.08 136.546,161.129 135.47,162.1C135.55,161.21 135.66,160.3 135.8,159.42C135.8,159.27 135.85,159.12 135.88,158.97C135.88,158.78 135.95,158.59 135.98,158.4C136.01,158.21 135.92,158.4 135.88,158.5C135.84,158.6 135.75,158.78 135.67,158.96C135.504,159.32 135.373,159.695 135.28,160.08C135.16,160.84 135.05,161.61 134.95,162.37C134.82,163.37 134.36,166.06 135.67,166.48C136.055,166.588 136.47,166.51 136.79,166.27C137.74,165.6 138.13,163.44 138.31,163.35C138.406,163.355 138.501,163.375 138.59,163.41C138.71,163.41 138.93,163.59 139.06,163.54C139.305,163.481 139.546,163.405 139.78,163.31L140.44,163.08C140.581,163.042 140.718,162.992 140.85,162.93L141.21,162.8C141.354,162.78 141.492,162.725 141.61,162.64C141.711,162.562 141.827,162.504 141.95,162.47C142.159,162.427 142.351,162.323 142.5,162.17C143.179,161.503 143.588,160.609 143.65,159.66L143.72,158.97L143.27,158.97C143.12,159.14 143,159.34 143,159.51ZM136.41,164.66C135.77,164.66 135.55,164.28 135.5,163.66C135.44,162.91 135.8,162.72 136.5,162.74C136.87,162.74 137.64,162.81 137.76,163.26C137.92,164.05 137.06,164.64 136.37,164.66L136.41,164.66Z" style="fill:rgb(0,79,159);fill-rule:nonzero;"/>
            </g>
            <g transform="matrix(1.970276,0,0,1.260682,-173.638811,-51.082833)">
                <path d="M126.15,153.58C126.307,153.709 126.482,153.814 126.67,153.89C126.77,153.89 126.93,153.75 127.12,153.47C127.278,153.267 127.379,153.025 127.41,152.77C127.393,152.533 127.281,152.313 127.1,152.16C126.936,151.98 126.712,151.866 126.47,151.84C126.41,151.84 126.27,152.04 126.05,152.44C125.899,152.68 125.791,152.944 125.73,153.22C125.737,153.294 125.783,153.359 125.85,153.39C125.945,153.46 126.046,153.524 126.15,153.58Z" style="fill:rgb(0,79,159);fill-rule:nonzero;"/>
            </g>
            <g transform="matrix(1.970276,0,0,1.260682,-173.638811,-51.082833)">
                <path d="M137.83,152.19L138.1,152.36L138.37,152.58C138.45,152.65 138.51,152.69 138.56,152.68C138.61,152.67 138.77,152.55 138.94,152.27C139.092,152.065 139.185,151.823 139.21,151.57C139.192,151.355 139.083,151.158 138.91,151.03C138.778,150.888 138.602,150.796 138.41,150.77C138.242,150.938 138.109,151.139 138.02,151.36C137.892,151.569 137.785,151.79 137.7,152.02C137.7,152.08 137.74,152.13 137.83,152.19Z" style="fill:rgb(0,79,159);fill-rule:nonzero;"/>
            </g>
            <g transform="matrix(1.970276,0,0,1.260682,-173.638811,-51.082833)">
                <path d="M139.09,157.47C139.09,157.52 139.34,157.35 139.54,157.16C140.001,156.61 140.429,156.032 140.82,155.43C140.92,155.27 140.96,155.15 140.88,155.01C140.79,155.01 140.67,155.16 140.51,155.42C140.08,156.02 139.68,156.55 139.32,157.01C139.14,157.23 139.05,157.41 139.09,157.47Z" style="fill:rgb(0,79,159);fill-rule:nonzero;"/>
            </g>
            <g transform="matrix(1.970276,0,0,1.260682,-173.638811,-51.082833)">
                <path d="M145.91,158.23C145.933,158.158 145.933,158.082 145.91,158.01C145.887,157.938 145.82,158.08 145.76,158.21L145.43,158.92L145.82,158.92C145.84,158.6 145.88,158.38 145.91,158.23Z" style="fill:rgb(0,79,159);fill-rule:nonzero;"/>
            </g>
            <g transform="matrix(1.970276,0,0,1.260682,-173.638811,-51.082833)">
                <path d="M137.29,154.31C137.433,154.43 137.591,154.531 137.76,154.61C137.95,154.61 138.21,154.31 138.53,153.72C138.718,153.829 138.892,153.96 139.05,154.11C139.19,154.25 139.29,154.32 139.37,154.32C139.45,154.32 139.63,154.18 139.83,153.9C140.022,153.694 140.142,153.43 140.17,153.15C140.138,152.93 140.019,152.732 139.84,152.6C139.7,152.443 139.508,152.34 139.3,152.31C139.092,152.28 139.15,152.44 138.97,152.7C138.79,152.96 138.73,153.08 138.6,153.25C138.488,153.088 138.349,152.946 138.19,152.83C138.057,152.713 137.894,152.634 137.72,152.6C137.67,152.6 137.52,152.81 137.26,153.23C137.101,153.459 136.974,153.708 136.88,153.97C136.999,154.103 137.138,154.217 137.29,154.31Z" style="fill:rgb(0,79,159);fill-rule:nonzero;"/>
            </g>
            <g transform="matrix(1.970276,0,0,1.260682,-173.638811,-51.082833)">
                <path d="M121.33,158.68L121.21,158.91C120.907,159.493 120.688,160.116 120.56,160.76C120.48,161.69 120.4,162.61 120.31,163.54C120.27,164.141 120.19,164.739 120.07,165.33C120.039,165.379 120.039,165.441 120.07,165.49C120.109,165.462 120.14,165.424 120.16,165.38C120.639,164.672 120.928,163.852 121,163C121,162.8 121.12,162 121.25,160.6C121.33,159.81 121.4,159.24 121.46,158.91L121.46,158.7C121.483,158.628 121.483,158.552 121.46,158.48C121.437,158.408 121.39,158.54 121.33,158.68Z" style="fill:rgb(0,79,159);fill-rule:nonzero;"/>
            </g>
            <g transform="matrix(1.970276,0,0,1.260682,-173.638811,-51.082833)">
                <path d="M144.81,153.64C144.969,153.442 145.07,153.203 145.1,152.95C145.083,152.713 144.971,152.493 144.79,152.34C144.631,152.154 144.404,152.039 144.16,152.02C144.1,152.02 143.96,152.22 143.74,152.62C143.592,152.861 143.484,153.125 143.42,153.4C143.435,153.468 143.479,153.527 143.54,153.56L143.84,153.76C143.999,153.885 144.174,153.989 144.36,154.07C144.46,154.07 144.62,153.93 144.81,153.64Z" style="fill:rgb(0,79,159);fill-rule:nonzero;"/>
            </g>
            <g transform="matrix(1.970276,0,0,1.260682,-173.638811,-51.082833)">
                <path d="M136.31,150.82C136.369,150.714 136.369,150.586 136.31,150.48C136.24,150.48 136.11,150.57 135.92,150.76C135.116,151.545 134.043,151.996 132.92,152.02C132.742,152.029 132.563,152.012 132.39,151.97L132.03,151.92C131.604,151.963 131.211,152.167 130.93,152.49C130.62,152.765 130.377,153.107 130.22,153.49C130.22,153.6 130.16,153.68 130.22,153.76C130.295,153.731 130.363,153.686 130.42,153.63C130.557,153.533 130.705,153.453 130.86,153.39C131.017,153.315 131.187,153.268 131.36,153.25C131.502,153.261 131.642,153.284 131.78,153.32C131.943,153.366 132.111,153.389 132.28,153.39C133.018,153.37 133.738,153.16 134.37,152.78C135.211,152.353 135.892,151.665 136.31,150.82Z" style="fill:rgb(0,79,159);fill-rule:nonzero;"/>
            </g>
            <g transform="matrix(1.970276,0,0,1.260682,-173.638811,-51.082833)">
                <path d="M143.59,158.17L143.22,158.92L143.67,158.92L143.74,158.23C143.74,158.12 143.74,158.07 143.69,158.07C143.64,158.07 143.63,158.1 143.59,158.17Z" style="fill:rgb(0,79,159);fill-rule:nonzero;"/>
            </g>
            <g transform="matrix(1.970276,0,0,1.260682,-173.638811,-51.082833)">
                <path d="M130.88,158.06C130.73,158.37 130.6,158.66 130.49,158.92L130.92,158.92C130.97,158.53 131.02,158.26 131.05,158.09C131.08,158.02 131.08,157.94 131.05,157.87C131.02,157.8 131,157.93 130.88,158.06Z" style="fill:rgb(0,79,159);fill-rule:nonzero;"/>
            </g>
            <g transform="matrix(1.970276,0,0,1.260682,-173.638811,-51.082833)">
                <path d="M133.14,155.1L132.37,155.1C129.51,155.31 126.65,155.53 123.79,155.73C120.01,156 117.34,156.09 115.79,156.04C114.363,156.05 112.943,155.858 111.57,155.47C111.03,155.28 110.76,155.06 110.77,154.82C110.78,154.58 110.94,154.39 111.28,154.13C111.717,153.813 112.178,153.532 112.66,153.29C113.139,153.036 113.642,152.829 114.16,152.67C114.446,152.551 114.692,152.353 114.87,152.1C115.055,151.907 115.177,151.663 115.22,151.4C115.22,151.22 115.1,151.05 114.83,150.86C114.58,150.7 114.295,150.604 114,150.58L113.88,150.58C113.62,150.803 113.397,151.067 113.22,151.36C113.048,151.582 112.916,151.833 112.83,152.1C112.83,152.24 112.93,152.36 113.14,152.45C112.508,152.746 111.906,153.101 111.34,153.51C110.88,153.87 110.482,154.302 110.16,154.79C109.885,155.147 109.703,155.566 109.63,156.01C109.63,157.07 111.34,157.66 114.76,157.78C118.251,157.805 121.738,157.554 125.19,157.03L133.37,155.85C134,155.77 134.32,155.64 134.32,155.45C134.32,155.26 133.91,155.13 133.14,155.1Z" style="fill:rgb(0,79,159);fill-rule:nonzero;"/>
            </g>
        </g>
    </g>
</svg>
